<svg width="109" height="36" viewBox="0 0 109 36" fill="none" xmlns="http://www.w3.org/2000/svg">
<path d="M66.7054 34.6921C66.5186 34.7544 66.1449 34.879 65.6466 34.879C64.5255 34.879 63.7158 34.1939 63.7158 32.8859C63.7158 31.6403 64.5255 30.8306 65.7712 30.8306C66.2695 30.8306 66.5809 30.9551 66.7054 31.0174L66.5809 31.4534C66.394 31.3911 66.1449 31.2666 65.7712 31.2666C64.8369 31.2666 64.2764 31.8271 64.2764 32.8859C64.2764 33.8202 64.8369 34.443 65.7712 34.443C66.0826 34.443 66.394 34.3807 66.5809 34.2562L66.7054 34.6921Z" fill="#3D195B"/>
<path d="M68.8228 34.8165L68.7605 34.4428C68.5737 34.6919 68.3246 34.8787 67.8886 34.8787C67.328 34.8787 67.0166 34.505 67.0166 34.0691C67.0166 33.3839 67.6394 33.0102 68.6983 33.0102V32.948C68.6983 32.6988 68.636 32.3251 68.0754 32.3251C67.8263 32.3251 67.5149 32.3874 67.328 32.512L67.2034 32.2006C67.4526 32.076 67.764 31.9514 68.1377 31.9514C69.0097 31.9514 69.1965 32.512 69.1965 33.0725V34.1313C69.1965 34.3805 69.1965 34.6296 69.2588 34.8165H68.8228ZM68.7605 33.3839C68.2 33.3839 67.5772 33.4462 67.5772 34.0068C67.5772 34.3182 67.8263 34.505 68.0754 34.505C68.4491 34.505 68.6983 34.2559 68.7605 34.0068C68.7605 33.9445 68.7605 33.8822 68.7605 33.8199V33.3839Z" fill="#3D195B"/>
<path d="M70.0681 32.8857C70.0681 32.5743 70.0681 32.2628 70.0681 32.0137H70.5041V32.5743C70.6287 32.2006 70.9401 31.9514 71.2515 31.9514C71.3138 31.9514 71.3761 31.9514 71.3761 31.9514V32.4497C71.3138 32.4497 71.2515 32.4497 71.1892 32.4497C70.8155 32.4497 70.5664 32.6988 70.5041 33.1348C70.5041 33.1971 70.5041 33.2594 70.5041 33.3839V34.8787H70.0059V32.8857H70.0681Z" fill="#3D195B"/>
<path d="M72.5603 31.2041C72.5603 31.391 72.4358 31.5155 72.2489 31.5155C72.0621 31.5155 71.9375 31.391 71.9375 31.2041C71.9375 31.0173 72.0621 30.8927 72.2489 30.8927C72.4358 30.8927 72.5603 31.0173 72.5603 31.2041ZM71.9998 34.8166V32.0138H72.4981V34.8166H71.9998Z" fill="#3D195B"/>
<path d="M73.3701 32.7612C73.3701 32.4498 73.3701 32.263 73.3701 32.0138H73.8061V32.4498C73.9307 32.2007 74.2421 31.9515 74.7404 31.9515C75.1141 31.9515 75.7369 32.2007 75.7369 33.1349V34.8166H75.2386V33.1972C75.2386 32.7612 75.0518 32.3875 74.6158 32.3875C74.3044 32.3875 73.993 32.6367 73.9307 32.8858C73.9307 32.9481 73.8684 33.0104 73.8684 33.1349V34.8166H73.3701V32.7612Z" fill="#3D195B"/>
<path d="M78.976 32.0138C78.976 32.2007 78.976 32.4498 78.976 32.7612V34.3806C78.976 35.0034 78.8514 35.4394 78.6023 35.6886C78.3532 35.9377 77.9172 36 77.6058 36C77.2943 36 76.9206 35.9377 76.6715 35.7508L76.7961 35.3771C76.9829 35.5017 77.2943 35.6263 77.6058 35.6263C78.104 35.6263 78.4777 35.3771 78.4777 34.6297V34.3183C78.2909 34.5674 78.0417 34.8166 77.6058 34.8166C76.9206 34.8166 76.4224 34.256 76.4224 33.4463C76.4224 32.5121 77.0452 31.9515 77.668 31.9515C78.1663 31.9515 78.4154 32.2007 78.54 32.4498V32.0138H78.976ZM78.4777 33.1349C78.4777 33.0726 78.4777 32.9481 78.4777 32.8858C78.4154 32.5744 78.1663 32.3252 77.7926 32.3252C77.2943 32.3252 76.9829 32.7612 76.9829 33.3841C76.9829 33.9446 77.2321 34.3806 77.7926 34.3806C78.104 34.3806 78.4154 34.1937 78.4777 33.8823C78.4777 33.82 78.54 33.6955 78.54 33.6332V33.1349H78.4777Z" fill="#3D195B"/>
<path d="M80.9695 34.2561C81.0941 34.3806 81.4055 34.4429 81.6546 34.4429C82.0283 34.4429 82.2152 34.2561 82.2152 34.0069C82.2152 33.7578 82.0906 33.6332 81.7169 33.5087C81.2186 33.3218 80.9695 33.0727 80.9695 32.699C80.9695 32.263 81.3432 31.8893 81.966 31.8893C82.2775 31.8893 82.5266 31.9516 82.6512 32.0761L82.5266 32.4498C82.402 32.3875 82.2152 32.263 81.966 32.263C81.6546 32.263 81.4678 32.4498 81.4678 32.6367C81.4678 32.8858 81.6546 32.9481 82.0283 33.135C82.5266 33.3218 82.7757 33.5709 82.7757 34.0069C82.7757 34.5052 82.402 34.8166 81.7169 34.8166C81.4055 34.8166 81.1564 34.7543 80.9072 34.6298L80.9695 34.2561Z" fill="#3D195B"/>
<path d="M83.8963 31.2042C83.8963 31.3911 83.7717 31.5157 83.5849 31.5157C83.398 31.5157 83.2734 31.3911 83.2734 31.2042C83.2734 31.0174 83.398 30.8928 83.5849 30.8928C83.7717 30.8928 83.8963 31.0174 83.8963 31.2042ZM83.3357 34.8167V32.0139H83.834V34.8167H83.3357Z" fill="#3D195B"/>
<path d="M84.7061 32.7612C84.7061 32.4498 84.7061 32.263 84.7061 32.0138H85.142V32.4498C85.2666 32.2007 85.578 31.9515 86.0763 31.9515C86.45 31.9515 87.0728 32.2007 87.0728 33.1349V34.8166H86.5746V33.1972C86.5746 32.7612 86.3877 32.3875 85.9517 32.3875C85.6403 32.3875 85.3289 32.6367 85.2666 32.8858C85.2666 32.9481 85.2043 33.0104 85.2043 33.1349V34.8166H84.7061V32.7612Z" fill="#3D195B"/>
<path d="M89.8757 34.692C89.7512 34.7543 89.4398 34.8789 89.066 34.8789C88.1941 34.8789 87.6958 34.3183 87.6958 33.4463C87.6958 32.5744 88.2564 31.9515 89.1906 31.9515C89.502 31.9515 89.7512 32.0138 89.8757 32.0761L89.7512 32.4498C89.6266 32.3875 89.4397 32.3252 89.1906 32.3252C88.5678 32.3252 88.1941 32.8235 88.1941 33.3841C88.1941 34.0069 88.6301 34.4429 89.1906 34.4429C89.502 34.4429 89.6889 34.3806 89.8135 34.3183L89.8757 34.692Z" fill="#3D195B"/>
<path d="M90.7476 33.5086C90.7476 34.1937 91.1835 34.5051 91.6818 34.5051C92.0555 34.5051 92.2424 34.4429 92.4292 34.3806L92.4915 34.7543C92.3046 34.8166 91.9932 34.9411 91.5572 34.9411C90.6853 34.9411 90.187 34.3806 90.187 33.5086C90.187 32.6366 90.6853 32.0138 91.495 32.0138C92.4292 32.0138 92.6784 32.8235 92.6784 33.3217C92.6784 33.4463 92.6784 33.5086 92.6784 33.5709H90.7476V33.5086ZM92.2424 33.1349C92.2424 32.8235 92.1178 32.3252 91.5572 32.3252C91.059 32.3252 90.8098 32.8235 90.7476 33.1349H92.2424Z" fill="#3D195B"/>
<path d="M95.5431 31.5156L94.858 31.8893L94.7334 31.5156L95.5431 31.0796H95.9791V34.8166H95.4808V31.5156H95.5431Z" fill="#3D195B"/>
<path d="M97.7233 34.4429C97.8478 34.4429 97.9724 34.4429 98.1592 34.4429C98.4707 34.3806 98.7198 34.256 98.9689 34.0692C99.2181 33.8201 99.4049 33.5086 99.4672 33.0727C99.2803 33.3218 98.9689 33.5086 98.5952 33.5086C97.9101 33.5086 97.4741 33.0104 97.4741 32.3875C97.4741 31.7024 97.9724 31.0796 98.7821 31.0796C99.5295 31.0796 100.028 31.7024 100.028 32.6367C100.028 33.4464 99.7786 34.0692 99.4049 34.3806C99.0935 34.692 98.7198 34.8166 98.2838 34.8789C98.097 34.8789 97.9101 34.9412 97.7855 34.8789V34.4429H97.7233ZM97.9101 32.263C97.9101 32.7612 98.2215 33.0727 98.6575 33.0727C98.9689 33.0727 99.2804 32.8858 99.4049 32.699C99.4049 32.6367 99.4672 32.5744 99.4672 32.5121C99.4672 31.8893 99.2181 31.391 98.7198 31.391C98.2215 31.391 97.9101 31.7647 97.9101 32.263Z" fill="#3D195B"/>
<path d="M100.339 33.8824C100.339 33.3841 100.65 33.0727 101.086 32.8858C100.65 32.699 100.463 32.3876 100.463 32.0139C100.463 31.391 100.962 31.0173 101.647 31.0173C102.394 31.0173 102.768 31.4533 102.768 31.9516C102.768 32.263 102.581 32.6367 102.145 32.8236C102.643 33.0104 102.892 33.3218 102.892 33.8201C102.892 34.5052 102.332 34.9412 101.585 34.9412C100.837 34.8789 100.339 34.3806 100.339 33.8824ZM102.394 33.8201C102.394 33.3841 102.083 33.135 101.585 33.0104C101.149 33.135 100.899 33.4464 100.899 33.7578C100.899 34.1315 101.149 34.5052 101.647 34.5052C102.083 34.5052 102.394 34.1938 102.394 33.8201ZM100.962 31.9516C100.962 32.3253 101.273 32.5121 101.709 32.6367C102.021 32.5121 102.27 32.3253 102.27 31.9516C102.27 31.6402 102.083 31.3288 101.647 31.3288C101.211 31.3288 100.962 31.6402 100.962 31.9516Z" fill="#3D195B"/>
<path d="M103.64 34.4429C103.765 34.4429 103.889 34.4429 104.076 34.4429C104.388 34.3806 104.637 34.256 104.886 34.0692C105.135 33.8201 105.322 33.5086 105.384 33.0727C105.197 33.3218 104.886 33.5086 104.512 33.5086C103.827 33.5086 103.391 33.0104 103.391 32.3875C103.391 31.7024 103.889 31.0796 104.699 31.0796C105.446 31.0796 105.945 31.7024 105.945 32.6367C105.945 33.4464 105.696 34.0692 105.322 34.3806C105.01 34.692 104.637 34.8166 104.201 34.8789C104.014 34.8789 103.827 34.9412 103.703 34.8789V34.4429H103.64ZM103.827 32.263C103.827 32.7612 104.139 33.0727 104.575 33.0727C104.886 33.0727 105.197 32.8858 105.322 32.699C105.322 32.6367 105.384 32.5744 105.384 32.5121C105.384 31.8893 105.135 31.391 104.637 31.391C104.139 31.391 103.827 31.7647 103.827 32.263Z" fill="#3D195B"/>
<path d="M84.5812 9.03101C79.1003 9.03101 74.3667 6.35282 72.1245 2.42896C73.8062 6.85109 78.7266 10.0898 84.5812 10.0898C90.4359 10.0898 95.3563 6.85109 97.0379 2.42896C94.7957 6.35282 90.0622 9.03101 84.5812 9.03101Z" fill="#3D195B"/>
<path d="M84.5811 6.60218C80.159 6.60218 76.4219 4.42226 74.6157 1.37036C75.9237 4.92053 79.9098 7.47415 84.5811 7.47415C89.2524 7.47415 93.2385 4.92053 94.5465 1.37036C92.7402 4.42226 88.9409 6.60218 84.5811 6.60218Z" fill="#3D195B"/>
<path d="M84.5817 4.23528C81.0938 4.23528 78.0419 2.49134 76.6094 0C77.6682 2.86504 80.8447 4.9204 84.5817 4.9204C88.3187 4.9204 91.4952 2.86504 92.554 0C91.1215 2.55363 88.0696 4.23528 84.5817 4.23528Z" fill="#3D195B"/>
<path d="M9.15569 25.2871C9.15569 25.5362 9.03112 25.6608 8.84427 25.6608H7.84773C7.5986 25.6608 7.47403 25.5362 7.47403 25.2871V19.8061H1.68166V25.2871C1.68166 25.5362 1.55709 25.6608 1.30796 25.6608H0.373702C0.124567 25.6608 0 25.5362 0 25.2871V13.6401C0 13.3909 0.124567 13.2664 0.373702 13.2664H1.30796C1.55709 13.2664 1.68166 13.3909 1.68166 13.6401V18.5605H7.47403V13.6401C7.47403 13.3909 7.5986 13.2664 7.84773 13.2664H8.84427C9.0934 13.2664 9.15569 13.3909 9.15569 13.6401V25.2871Z" fill="#3D195B"/>
<path d="M18.9338 21.0517C18.9338 21.4877 18.8715 21.55 18.3733 21.55H12.83C12.8923 23.2316 13.8266 24.6019 15.6951 24.6019C16.4425 24.6019 17.2522 24.4773 17.875 24.2282C18.0619 24.1659 18.1864 24.1659 18.2487 24.3527L18.4356 25.0379C18.4978 25.2247 18.3733 25.287 18.2487 25.3493C17.5013 25.723 16.3179 25.8476 15.5082 25.8476C12.7055 25.8476 11.2729 24.0413 11.2729 21.3009C11.2729 18.7472 12.8923 16.7542 15.4459 16.7542C16.4425 16.7542 17.3145 17.1279 17.875 17.7507C18.6224 18.4981 18.8715 19.5569 18.8715 20.7403V21.0517H18.9338ZM17.439 20.4912V20.242C17.439 18.9964 16.7539 17.9375 15.3837 17.9375C13.8889 17.9375 13.0169 19.1209 12.8923 20.4912H17.439Z" fill="#3D195B"/>
<path d="M22.2355 25.2868C22.2355 25.5359 22.111 25.6605 21.9241 25.6605H21.0521C20.8653 25.6605 20.7407 25.5359 20.7407 25.2868V13.3283C20.7407 13.0792 20.803 13.0169 20.9899 12.9546C21.9241 12.8301 21.9241 12.8301 21.9864 12.8301C22.1732 12.8301 22.2355 12.8924 22.2355 13.1415V25.2868Z" fill="#3D195B"/>
<path d="M28.5886 25.8475C27.7167 25.8475 26.7824 25.5361 26.2219 24.851V29.2108C26.2219 29.46 26.035 29.5223 25.8482 29.5223H25.0385C24.7893 29.5223 24.7271 29.3977 24.7271 29.1486V17.3147C24.7271 17.0655 24.8516 17.0033 25.0385 17.0033H25.7236C25.9727 17.0033 26.1596 17.0655 26.1596 17.3147V17.9375C26.7201 17.2524 27.8412 16.8164 28.8378 16.8164C31.3914 16.8164 32.5125 18.934 32.5125 21.3008C32.4502 23.6053 31.1423 25.8475 28.5886 25.8475ZM28.4641 17.9998C27.5921 17.9998 26.6578 18.4981 26.1596 19.1209V23.3562C26.5333 24.0413 27.4675 24.6019 28.3395 24.6019C30.208 24.6019 30.8308 22.8579 30.8308 21.2385C30.8931 19.6814 30.3326 17.9998 28.4641 17.9998Z" fill="#3D195B"/>
<path d="M35.3146 15.6954C34.8164 15.6954 34.3804 15.3839 34.3804 14.8234C34.3804 14.3251 34.8164 13.9514 35.3146 13.9514C35.8129 13.9514 36.2489 14.2628 36.2489 14.8234C36.2489 15.3839 35.7506 15.6954 35.3146 15.6954ZM36.062 25.287C36.062 25.5362 35.9375 25.6607 35.7506 25.6607H34.9409C34.6918 25.6607 34.5672 25.5362 34.5672 25.287V17.3147C34.5672 17.0656 34.6918 16.941 34.9409 16.941H35.7506C35.9997 16.941 36.062 17.0656 36.062 17.3147V25.287Z" fill="#3D195B"/>
<path d="M45.9656 25.287C45.9656 25.5361 45.9033 25.6607 45.6542 25.6607H44.7822C44.5331 25.6607 44.4708 25.5361 44.4708 25.287V20.242C44.4708 18.9341 44.1594 18.0621 42.7269 18.0621C41.9172 18.0621 40.8584 18.5604 40.2355 19.1209V25.287C40.2355 25.5361 40.111 25.6607 39.9241 25.6607H39.0521C38.8653 25.6607 38.7407 25.5361 38.7407 25.287V17.3147C38.7407 17.0656 38.803 16.941 39.0521 16.941H39.8618C40.0487 16.941 40.1732 17.0033 40.1732 17.2524V17.813C40.9829 17.1278 42.104 16.7542 43.1006 16.7542C45.1559 16.7542 45.9656 17.9998 45.9656 19.9929V25.287Z" fill="#3D195B"/>
<path d="M51.6335 29.6468C50.8238 29.6468 49.8273 29.3977 49.0799 29.024C48.9553 28.9617 48.893 28.8372 48.893 28.7126C48.893 28.6503 48.893 28.588 48.9553 28.5257L49.1422 27.9652C49.2044 27.7783 49.2667 27.7161 49.3913 27.7161C49.4536 27.7161 49.5159 27.7161 49.5781 27.7783C50.201 28.0898 51.0107 28.3389 51.6335 28.3389C53.6266 28.3389 54.1871 27.2801 54.1871 25.4116V24.6019C53.6266 25.2247 52.5055 25.6607 51.6335 25.6607C49.0799 25.6607 47.8965 23.6676 47.8965 21.3008C47.8965 18.8718 49.2667 16.7542 51.8203 16.7542C52.6923 16.7542 53.6889 17.1278 54.1871 17.813V17.2524C54.1871 17.0033 54.3117 16.941 54.5608 16.941H55.3705C55.6196 16.941 55.6819 17.0656 55.6819 17.3147V25.1624C55.6819 27.9652 54.4985 29.6468 51.6335 29.6468ZM54.1248 19.2455C53.7511 18.5604 52.8169 17.9998 51.9449 17.9998C50.1387 17.9998 49.4536 19.6192 49.4536 21.2386C49.4536 22.7957 50.0764 24.415 51.8203 24.415C52.6923 24.415 53.6889 23.9168 54.1248 23.2939V19.2455Z" fill="#3D195B"/>
<path d="M71.5014 25.2871C71.5014 25.5362 71.3768 25.6608 71.19 25.6608H70.1934C69.9443 25.6608 69.8197 25.5362 69.8197 25.2871V19.8061H64.0274V25.2871C64.0274 25.5362 63.9028 25.6608 63.6537 25.6608H62.7194C62.4703 25.6608 62.3457 25.5362 62.3457 25.2871V13.6401C62.3457 13.3909 62.4703 13.2664 62.7194 13.2664H63.6537C63.9028 13.2664 64.0274 13.3909 64.0274 13.6401V18.5605H69.8197V13.6401C69.8197 13.3909 69.9443 13.2664 70.1934 13.2664H71.19C71.4391 13.2664 71.5014 13.3909 71.5014 13.6401V25.2871Z" fill="#3D195B"/>
<path d="M82.027 25.4115C82.027 25.5984 81.9647 25.6607 81.7779 25.6607H81.0305C80.2208 25.6607 79.8471 25.0378 79.8471 24.3527H79.7848C79.3488 25.1624 78.1654 25.8475 77.1066 25.8475C74.6152 25.8475 73.4941 23.7299 73.4941 21.4877C73.4941 18.4981 75.3004 16.8164 77.3557 16.8164C78.2277 16.8164 79.2242 17.1901 79.7848 17.9375V17.3147C79.7848 17.1278 79.9094 17.0033 80.0962 17.0033H80.9059C81.0927 17.0033 81.2173 17.1278 81.2173 17.3147V23.6053C81.2173 24.0413 81.2173 24.2904 81.2796 24.415C81.3419 24.5396 81.4664 24.6019 81.591 24.6019H81.7156C81.9024 24.6019 81.9647 24.6641 81.9647 24.851V25.4115H82.027ZM79.7225 19.3077C79.2865 18.4981 78.4145 17.9998 77.5426 17.9998C76.1723 17.9998 75.1135 19.2455 75.1135 21.3631C75.1135 23.3562 76.0478 24.5396 77.3557 24.5396C78.4768 24.5396 79.4111 23.6053 79.7225 22.7333V19.3077Z" fill="#3D195B"/>
<path d="M91.1209 25.287C91.1209 25.5361 91.0586 25.6607 90.8095 25.6607H89.9375C89.6884 25.6607 89.6261 25.5361 89.6261 25.287V20.242C89.6261 18.9341 89.3147 18.0621 87.8822 18.0621C87.0725 18.0621 86.0136 18.5604 85.3908 19.1209V25.287C85.3908 25.5361 85.2662 25.6607 85.0794 25.6607H84.2074C84.0206 25.6607 83.896 25.5361 83.896 25.287V17.3147C83.896 17.0656 83.9583 16.941 84.2074 16.941H85.0171C85.204 16.941 85.3285 17.0033 85.3285 17.2524V17.813C86.1382 17.1278 87.2593 16.7542 88.2559 16.7542C90.3112 16.7542 91.1209 17.9998 91.1209 19.9929V25.287Z" fill="#3D195B"/>
<path d="M100.775 25.2868C100.775 25.5359 100.651 25.6605 100.526 25.6605H99.7789C99.5297 25.6605 99.4052 25.5359 99.4052 25.349V24.7262C98.8446 25.4113 97.7858 25.9096 96.7893 25.9096C94.1734 25.9096 93.0522 23.792 93.0522 21.4252C93.0522 18.8093 94.6093 16.8162 96.9761 16.8162C97.7858 16.8162 98.7823 17.1899 99.3429 17.8127V13.3906C99.3429 13.1415 99.4052 13.0792 99.6543 13.0169C100.589 12.8923 100.589 12.8923 100.651 12.8923C100.838 12.8923 100.9 12.9546 100.9 13.2038V25.2868H100.775ZM99.2806 19.2453C98.9069 18.5601 98.0349 17.9996 97.163 17.9996C95.5436 17.9996 94.6093 19.3075 94.6093 21.3006C94.6093 23.2314 95.4813 24.6016 97.0384 24.6016C97.9104 24.6016 98.8446 24.0411 99.2806 23.4183V19.2453Z" fill="#3D195B"/>
<path d="M105.197 25.8475C104.262 25.8475 103.328 25.5361 102.705 25.287C102.519 25.2247 102.519 25.1001 102.519 24.9756L102.768 24.3527C102.83 24.2281 102.955 24.1659 103.079 24.1659C103.764 24.4773 104.636 24.7264 105.197 24.7264C106.256 24.7264 106.941 24.2282 106.941 23.3562C106.941 22.6711 106.442 22.2974 105.57 21.9237L104.387 21.4254C103.328 20.9894 102.519 20.3043 102.519 19.1832C102.519 17.6261 103.951 16.8164 105.57 16.8164C106.318 16.8164 107.128 16.941 107.937 17.3147C108.062 17.377 108.124 17.4392 108.124 17.5015C108.124 17.5638 108.124 17.5638 108.062 17.6261L107.875 18.2489C107.813 18.3735 107.75 18.4358 107.688 18.4358C107.626 18.4358 107.626 18.4358 107.564 18.3735C107.065 18.1866 106.256 17.9375 105.695 17.9375C104.761 17.9375 104.2 18.4358 104.2 19.0586C104.2 19.6814 104.574 19.9306 105.321 20.3043L106.754 20.9271C107.75 21.3631 108.56 22.0482 108.56 23.2316C108.498 24.7887 107.128 25.8475 105.197 25.8475Z" fill="#3D195B"/>
</svg>
